<svg xmlns="http://www.w3.org/2000/svg" viewBox="0 0 512 512" role="img" aria-label="台股熱區溫度計">
  <defs>
    <linearGradient id="bg" x1="88" y1="54" x2="426" y2="468" gradientUnits="userSpaceOnUse">
      <stop stop-color="#0a2d67"/>
      <stop offset="0.52" stop-color="#0f5ea8"/>
      <stop offset="1" stop-color="#072142"/>
    </linearGradient>
    <linearGradient id="orange" x1="128" y1="344" x2="394" y2="150" gradientUnits="userSpaceOnUse">
      <stop stop-color="#ffb14a"/>
      <stop offset="1" stop-color="#ff6a1a"/>
    </linearGradient>
    <linearGradient id="cyan" x1="162" y1="126" x2="364" y2="382" gradientUnits="userSpaceOnUse">
      <stop stop-color="#b8e8ff"/>
      <stop offset="1" stop-color="#38a7ff"/>
    </linearGradient>
    <filter id="shadow" x="-20%" y="-20%" width="140%" height="140%">
      <feDropShadow dx="0" dy="18" stdDeviation="18" flood-color="#031329" flood-opacity="0.28"/>
    </filter>
  </defs>

  <rect x="24" y="24" width="464" height="464" rx="104" fill="url(#bg)"/>
  <rect x="48" y="48" width="416" height="416" rx="84" fill="none" stroke="#ffffff" stroke-opacity="0.16" stroke-width="2"/>

  <g opacity="0.24" stroke="#d6efff" stroke-width="5" stroke-linecap="round">
    <path d="M112 150h64l42 42h68"/>
    <path d="M346 152h46"/>
    <path d="M108 286h74l34-34h84"/>
    <path d="M302 338h78"/>
    <circle cx="112" cy="150" r="9" fill="#d6efff"/>
    <circle cx="218" cy="192" r="9" fill="#d6efff"/>
    <circle cx="346" cy="152" r="9" fill="#d6efff"/>
    <circle cx="216" cy="252" r="9" fill="#d6efff"/>
    <circle cx="302" cy="338" r="9" fill="#d6efff"/>
  </g>

  <g filter="url(#shadow)">
    <path d="M134 358h244" stroke="#d7ecff" stroke-opacity="0.42" stroke-width="14" stroke-linecap="round"/>
    <rect x="144" y="284" width="42" height="76" rx="12" fill="#79c7ff" opacity="0.92"/>
    <rect x="214" y="236" width="42" height="124" rx="12" fill="#b6e5ff" opacity="0.96"/>
    <rect x="284" y="190" width="42" height="170" rx="12" fill="#ffcf8a"/>
    <rect x="354" y="142" width="42" height="218" rx="12" fill="#ff8a2a"/>

    <path d="M126 318c62-61 102-90 143-98 33-7 56 3 78-17 17-15 29-37 43-72" fill="none" stroke="#fff7e8" stroke-width="30" stroke-linecap="round" stroke-linejoin="round" opacity="0.3"/>
    <path d="M126 318c62-61 102-90 143-98 33-7 56 3 78-17 17-15 29-37 43-72" fill="none" stroke="url(#orange)" stroke-width="18" stroke-linecap="round" stroke-linejoin="round"/>
    <path d="M365 124l31 5-16 27" fill="none" stroke="#ff8a2a" stroke-width="18" stroke-linecap="round" stroke-linejoin="round"/>

    <circle cx="268" cy="220" r="18" fill="#ffffff"/>
    <circle cx="268" cy="220" r="9" fill="#0f5ea8"/>
    <circle cx="347" cy="203" r="18" fill="#ffffff"/>
    <circle cx="347" cy="203" r="9" fill="#ff7a1f"/>
  </g>

  <g transform="translate(96 98)">
    <rect x="0" y="0" width="104" height="104" rx="30" fill="#ffffff" fill-opacity="0.14" stroke="#ffffff" stroke-opacity="0.18"/>
    <path d="M31 67V37h11v30m14 0V25h11v42m14 0V45h11v22" stroke="url(#cyan)" stroke-width="9" stroke-linecap="round"/>
    <path d="M28 72h68" stroke="#ffffff" stroke-opacity="0.72" stroke-width="8" stroke-linecap="round"/>
  </g>
</svg>
